# xmcd
#
# Track frame offsets:
#	150
#	142797
#	216452
#	261102
#
# Disc length: 3512 seconds
#
# Revision: 0
# Processed by: cddbd v1.5.2PL0 Copyright (c) Steve Scherf et al.
# Submitted via: EZCDAudioConverter 2.1.7.1
#
DISCID=370db604
DTITLE=Robert Palmer - King Biscuit Flower Hour 98-51
DYEAR=1900
DGENRE=
TTITLE0=Segment 1
TTITLE1=Segment 2
TTITLE2=Segment 3
TTITLE3=Promo Bed
EXTD=
EXTT0=
EXTT1=
EXTT2=
EXTT3=
PLAYORDER=
